<svg xmlns="http://www.w3.org/2000/svg" fill="none" viewBox="-1.25 -1.25 40 40" id="Coding-Apps-Website-Web-Dev-Api-Cloud--Streamline-Ultimate" height="40" width="40"><desc>Coding Apps Website Web Dev Api Cloud Streamline Icon: https://streamlinehq.com</desc><path stroke="#000000" stroke-linecap="round" stroke-linejoin="round" d="M26.084374999999998 21.43125c2.1865625 0.036875 4.298125 -0.7962500000000001 5.8703125 -2.31609375 1.57234375 -1.51984375 2.47671875 -3.60203125 2.5140625 -5.788515625 -0.0378125 -2.18621875 -0.9423437499999999 -4.2679374999999995 -2.51453125 -5.787453125 -1.57234375 -1.519515625 -3.68359375 -2.3524531250000003 -5.86984375 -2.315671875 -0.709375 -0.0000625 -1.41625 0.086515625 -2.1046875 0.2578125 -0.63953125 -1.302015625 -1.6335937500000002 -2.397125 -2.86765625 -3.1594375 -1.2342187500000001 -0.762325 -2.65828125 -1.1609109375 -4.10890625 -1.149940625C15.110609375000001 1.1438328125 13.275953125000001 1.824203125 11.859390625000001 3.079453125c-1.416578125 1.255265625 -2.3127343750000002 2.994734375 -2.512515625 4.876875 -1.7006875000000001 0.13175 -3.2909531249999997 0.893578125 -4.45940625 2.1363125 -1.1684687500000002 1.242734375 -1.83096875 2.876859375 -1.85778125 4.5824375 0.032046875 1.821484375 0.78578125 3.555859375 2.095625 4.822109375 1.309859375 1.26609375 3.068734375 1.9606249999999998 4.8903125 1.9309375l16.06875 0.003125Z" stroke-width="2.5"></path><path stroke="#000000" stroke-linecap="round" stroke-linejoin="round" d="M31.6328125 36.328281249999996v-10.209375" stroke-width="2.5"></path><path stroke="#000000" stroke-linecap="round" stroke-linejoin="round" d="M29.590625 26.118906250000002h4.0828125" stroke-width="2.5"></path><path stroke="#000000" stroke-linecap="round" stroke-linejoin="round" d="M29.590625 36.328125h4.0828125" stroke-width="2.5"></path><path stroke="#000000" stroke-linecap="round" stroke-linejoin="round" d="M17.3390625 36.328125v-4.084375" stroke-width="2.5"></path><path stroke="#000000" stroke-linecap="round" stroke-linejoin="round" d="M17.34375 32.243906249999995h3.0625c0.8121875000000001 0 1.59125 -0.32265625 2.16546875 -0.8970312500000001 0.574375 -0.574375 0.8970312500000001 -1.35328125 0.8970312500000001 -2.16546875 0 -0.81234375 -0.32265625 -1.59125 -0.8970312500000001 -2.165625 -0.57421875 -0.57421875 -1.35328125 -0.896875 -2.16546875 -0.896875H17.34375v6.125Z" stroke-width="2.5"></path><path stroke="#000000" stroke-linecap="round" stroke-linejoin="round" d="m3.0453281249999997 36.327968750000004 1.1515625 -7.6859375c0.11182812499999999 -0.696875 0.46829687499999995 -1.33125 1.005484375 -1.7890625 0.5371875 -0.45781249999999996 1.219921875 -0.709375 1.9257656250000001 -0.709375 0.705828125 0 1.3885625000000001 0.2515625 1.92575 0.709375 0.5371875 0.45781249999999996 0.89365625 1.0921874999999999 1.0055 1.7890625l1.153125 7.6859375" stroke-width="2.5"></path><path stroke="#000000" stroke-linecap="round" stroke-linejoin="round" d="M3.581265625 32.75453125h7.0953125" stroke-width="2.5"></path></svg>