<svg xmlns="http://www.w3.org/2000/svg" fill="none" viewBox="-1.25 -1.25 40 40" id="Attachment--Streamline-Ultimate" height="40" width="40"><desc>Attachment Streamline Icon: https://streamlinehq.com</desc><path stroke="#000000" stroke-linecap="round" stroke-linejoin="round" d="M36.328125 15.468796874999999 19.1765625 32.621875c-1.97796875 1.97796875 -4.6606250000000005 3.08921875 -7.457843749999999 3.08921875 -2.79721875 0 -5.479875 -1.11125 -7.457812499999999 -3.08921875C2.28296875 30.644062500000004 1.1717796875 27.96140625 1.1717796875 25.1640625c0 -2.7971875 1.1111890625 -5.47984375 3.0891265625 -7.457812499999999L18.3484375 3.620359375c0.6485937500000001 -0.671546875 1.424375 -1.207203125 2.2823437500000003 -1.5757031250000002 0.8578125000000001 -0.3685 1.7804687499999998 -0.5624703125 2.7140625000000003 -0.5705828125000001 0.93359375 -0.0081125 1.859375 0.16978593749999998 2.72359375 0.5233328125 0.8640625000000001 0.35353124999999996 1.6490624999999999 0.875625 2.309375 1.5358125 0.66015625 0.660171875 1.1821875000000002 1.445234375 1.53578125 2.30934375 0.3534375 0.8641093750000001 0.53140625 1.7899843750000002 0.5232812499999999 2.72359375 -0.008125 0.933609375 -0.20203125 1.85625 -0.570625 2.714078125 -0.36843750000000003 0.8578437499999999 -0.9040625 1.6337031250000003 -1.575625 2.2823124999999997L14.20465625 27.65625c-0.662953125 0.640625 -1.550953125 0.9950000000000001 -2.472734375 0.9871875 -0.921796875 -0.0078125 -1.803609375 -0.3775 -2.455546875 -1.0292187499999998 -0.651921875 -0.65171875 -1.0217968750000002 -1.5334375 -1.029953125 -2.45515625 -0.00815625 -0.921875 0.3460625 -1.8098437500000002 0.986359375 -2.473125L23.3203125 8.593796874999999" stroke-width="2.5"></path></svg>