<svg xmlns="http://www.w3.org/2000/svg" fill="none" viewBox="-1.25 -1.25 40 40" id="Design-Tool-Pencil-Ruler--Streamline-Ultimate" height="40" width="40"><desc>Design Tool Pencil Ruler Streamline Icon: https://streamlinehq.com</desc><path stroke="#000000" stroke-linecap="round" stroke-linejoin="round" d="M8.203125 36.328281249999996c-1.243203125 0 -2.435484375 -0.49390625 -3.3145624999999996 -1.37296875 -0.879078125 -0.8790625 -1.3729375 -2.0714062500000003 -1.3729375 -3.3145312500000004V10.203203125c0.001984375 -0.7272500000000001 0.173171875 -1.4440625 0.5 -2.09375l3.125 -6.25c0.097578125 -0.193984375 0.247140625 -0.3570328125 0.432 -0.4709671875C7.757484375 1.2745515625000001 7.970359374999999 1.2142187500000001 8.1875 1.2142187500000001c0.217140625 0 0.430015625 0.0603328125 0.614875 0.1742671875 0.184859375 0.11393437499999999 0.334421875 0.2769828125 0.432 0.4709671875l3.125 6.25c0.32682812499999997 0.6496875 0.498015625 1.3665 0.5 2.09375V31.64078125c0.00003125 1.2376562500000001 -0.48954687499999994 2.4253125 -1.3618750000000002 3.3034375 -0.8723281249999999 0.8782812500000001 -2.0565937499999998 1.37578125 -3.294375 1.3840625Z" stroke-width="2.5"></path><path stroke="#000000" stroke-linecap="round" stroke-linejoin="round" d="M3.515625 10.15625h9.375" stroke-width="2.5"></path><path stroke="#000000" stroke-linecap="round" stroke-linejoin="round" d="M3.515625 28.90625h9.375" stroke-width="2.5"></path><path stroke="#000000" stroke-linecap="round" stroke-linejoin="round" d="M22.265625 1.171875h9.375s2.34375 0 2.34375 2.34375v30.46875s0 2.34375 -2.34375 2.34375h-9.375s-2.34375 0 -2.34375 -2.34375V3.515625s0 -2.34375 2.34375 -2.34375Z" stroke-width="2.5"></path><path stroke="#000000" stroke-linecap="round" stroke-linejoin="round" d="M19.921875 8.203125h5.46875" stroke-width="2.5"></path><path stroke="#000000" stroke-linecap="round" stroke-linejoin="round" d="M19.921875 15.234375h5.46875" stroke-width="2.5"></path><path stroke="#000000" stroke-linecap="round" stroke-linejoin="round" d="M19.921875 22.265625h5.46875" stroke-width="2.5"></path><path stroke="#000000" stroke-linecap="round" stroke-linejoin="round" d="M19.921875 29.296875h5.46875" stroke-width="2.5"></path></svg>