<svg xmlns="http://www.w3.org/2000/svg" fill="none" viewBox="-1.25 -1.25 40 40" id="Programming-Browser-1--Streamline-Ultimate" height="40" width="40"><desc>Programming Browser 1 Streamline Icon: https://streamlinehq.com</desc><path stroke="#000000" stroke-linecap="round" stroke-linejoin="round" d="M3.515625 33.984375c-0.6215937500000001 0 -1.21775 -0.246875 -1.6572812499999998 -0.68640625C1.4188046875 32.8584375 1.171875 32.2621875 1.171875 31.640625V6.0390625c0.0020609375000000003 -0.668625 0.2685828125 -1.3092656249999999 0.741375 -1.7820624999999999 0.47279687500000006 -0.47279687500000006 1.1134375 -0.7393125 1.7820624999999999 -0.741375h30.121875c0.6653125 0.0020625 1.3028125 0.267265625 1.7732812500000001 0.73771875 0.47046875 0.4704375 0.735625 1.10790625 0.73765625 1.77321875v25.434375c-0.00203125 0.66859375 -0.26859375 1.3092187499999999 -0.7414062499999999 1.7820312500000002 -0.47281249999999997 0.47281249999999997 -1.1134375 0.739375 -1.7820312500000002 0.7414062499999999H3.515625Z" stroke-width="2.5"></path><path stroke="#000000" stroke-linecap="round" stroke-linejoin="round" d="M36.328125 10.546875H1.171875" stroke-width="2.5"></path><path stroke="#000000" stroke-linecap="round" stroke-linejoin="round" d="M19.921875 22.265625h7.03125" stroke-width="2.5"></path><path stroke="#000000" stroke-linecap="round" stroke-linejoin="round" d="m10.546875 17.578125 4.6875 4.6875 -4.6875 4.6875" stroke-width="2.5"></path></svg>