<svg xmlns="http://www.w3.org/2000/svg" fill="none" viewBox="-1.25 -1.25 40 40" id="Accounting-Calculator-1--Streamline-Ultimate" height="40" width="40"><desc>Accounting Calculator 1 Streamline Icon: https://streamlinehq.com</desc><path stroke="#000000" stroke-linecap="round" stroke-linejoin="round" d="M30.70625 36.328125H6.79375c-0.27690624999999996 0.00015625 -0.55115625 -0.05421875 -0.806984375 -0.16015625 -0.25584375 -0.10609375 -0.48824999999999996 -0.26140625 -0.683921875 -0.45734375000000005 -0.19565625 -0.19593750000000001 -0.350734375 -0.42859375 -0.456328125 -0.6846875 -0.10559375 -0.2559375 -0.159625 -0.5303125 -0.159015625 -0.8071875V8.203125h28.125V34.21875c0.000625 0.276875 -0.0534375 0.55125 -0.1590625 0.8071875 -0.10546875 0.25609375 -0.260625 0.48875 -0.45625 0.6846875 -0.19562500000000002 0.19593750000000001 -0.42812500000000003 0.35125 -0.6839062499999999 0.45734375000000005 -0.2559375 0.1059375 -0.53015625 0.1603125 -0.80703125 0.16015625Z" stroke-width="2.5"></path><path stroke="#000000" stroke-linecap="round" stroke-linejoin="round" d="M18.75 8.203125v28.125" stroke-width="2.5"></path><path stroke="#000000" stroke-linecap="round" stroke-linejoin="round" d="M4.6875 22.265625h28.125" stroke-width="2.5"></path><path stroke="#000000" stroke-linecap="round" stroke-linejoin="round" d="M11.71875 12.890625v4.6875" stroke-width="2.5"></path><path stroke="#000000" stroke-linecap="round" stroke-linejoin="round" d="M9.375 15.234375h4.6875" stroke-width="2.5"></path><path stroke="#000000" stroke-linecap="round" stroke-linejoin="round" d="m14.0625 26.953125 -4.6875 4.6875" stroke-width="2.5"></path><path stroke="#000000" stroke-linecap="round" stroke-linejoin="round" d="m9.375 26.953125 4.6875 4.6875" stroke-width="2.5"></path><path stroke="#000000" stroke-linecap="round" stroke-linejoin="round" d="M23.4375 15.234375h4.6875" stroke-width="2.5"></path><path stroke="#000000" stroke-linecap="round" stroke-linejoin="round" d="M23.4375 26.953125h4.6875" stroke-width="2.5"></path><path stroke="#000000" stroke-linecap="round" stroke-linejoin="round" d="M23.4375 31.640625h4.6875" stroke-width="2.5"></path><path stroke="#000000" stroke-linecap="round" stroke-linejoin="round" d="M32.8125 8.203125H4.6875v-4.6875c0 -0.6215937500000001 0.24693750000000003 -1.21775 0.68646875 -1.6572812499999998C5.8135 1.4188046875 6.409656249999999 1.171875 7.03125 1.171875h23.4375c0.6215625 0 1.2178125 0.24692968750000002 1.65734375 0.68646875 0.43953125 0.43953125 0.68640625 1.0356874999999999 0.68640625 1.6572812499999998v4.6875Z" stroke-width="2.5"></path></svg>