<svg xmlns="http://www.w3.org/2000/svg" fill="none" viewBox="-1.25 -1.25 40 40" id="Startup-Product-Rocket-Box--Streamline-Ultimate" height="40" width="40"><desc>Startup Product Rocket Box Streamline Icon: https://streamlinehq.com</desc><path stroke="#000000" stroke-linecap="round" stroke-linejoin="round" d="m1.5625 28.323437499999997 17.1875 4.6875" stroke-width="2.5"></path><path stroke="#000000" stroke-linecap="round" stroke-linejoin="round" d="m18.75 33.0109375 17.1875 -4.6875" stroke-width="2.5"></path><path stroke="#000000" stroke-linecap="round" stroke-linejoin="round" d="m1.5625 28.323437499999997 8.582812500000001 -2.2484375" stroke-width="2.5"></path><path stroke="#000000" stroke-linecap="round" stroke-linejoin="round" d="M1.5625 35.449999999999996v-6.93125" stroke-width="2.5"></path><path stroke="#000000" stroke-linecap="round" stroke-linejoin="round" d="M35.9375 28.518749999999997v6.93125" stroke-width="2.5"></path><path stroke="#000000" stroke-linecap="round" stroke-linejoin="round" d="M18.75 36.231249999999996v-3.2203125" stroke-width="2.5"></path><path stroke="#000000" stroke-linecap="round" stroke-linejoin="round" d="M24.21875 9.471890625c0 3.0203125 -0.9109375 10.937484375 -5.46875 10.937484375S13.28125 12.500015625 13.28125 9.471890625c0 -5.46875 5.46875 -8.203121874999999 5.46875 -8.203121874999999s5.46875 2.734371875 5.46875 8.203121874999999Z" stroke-width="2.5"></path><path stroke="#000000" d="M18.75 9.276578125c-0.43140625 0 -0.78125 -0.34978125 -0.78125 -0.78125s0.34984375 -0.78125 0.78125 -0.78125" stroke-width="2.5"></path><path stroke="#000000" d="M18.75 9.276578125c0.43140625 0 0.78125 -0.34978125 0.78125 -0.78125s-0.34984375 -0.78125 -0.78125 -0.78125" stroke-width="2.5"></path><path stroke="#000000" stroke-linecap="round" stroke-linejoin="round" d="M15.640625 27.93921875v-1.575c0.1253125 -0.745625 0.51453125 -1.42140625 1.09671875 -1.9040624999999998 0.5821875 -0.48250000000000004 1.3184375 -0.7396874999999999 2.074375 -0.72453125 0.75609375 0.01515625 1.48140625 0.30171875 2.04375 0.8071875 0.56234375 0.50546875 0.9242187500000001 1.1962499999999998 1.01953125 1.9464062500000001v1.4500000000000002" stroke-width="2.5"></path><path stroke="#000000" stroke-linecap="round" stroke-linejoin="round" d="m15.12959375 19.00171875 -1.2625000000000002 0.6328125c-0.7138281249999999 0.37890625 -1.3677656249999999 0.8610937500000001 -1.940625 1.4312500000000001 -0.137125 0.14703125 -0.314640625 0.2503125 -0.51025 0.296875 -0.19562500000000002 0.04640625 -0.400625 0.0340625 -0.589265625 -0.03546875 -0.188625 -0.0696875 -0.3525 -0.19343749999999998 -0.471015625 -0.35578125000000005 -0.11850000000000001 -0.1625 -0.18637499999999999 -0.35640625 -0.19509375 -0.5571875 -0.13393750000000001 -1.1707812499999999 0.11545312499999999 -2.35359375 0.71075 -3.370625s1.504375 -1.81353125 2.5908125 -2.27003125" stroke-width="2.5"></path><path stroke="#000000" stroke-linecap="round" stroke-linejoin="round" d="m22.3703125 19.00171875 1.2625000000000002 0.6328125c0.71390625 0.37890625 1.3678124999999999 0.8610937500000001 1.940625 1.4312500000000001 0.13718750000000002 0.14703125 0.3146875 0.2503125 0.5103125 0.296875 0.19562500000000002 0.04640625 0.400625 0.0340625 0.58921875 -0.03546875 0.18859375 -0.0696875 0.3525 -0.19343749999999998 0.4709375 -0.35578125000000005 0.11859375 -0.1625 0.18640625 -0.35640625 0.19515625 -0.5571875 0.13390625 -1.1707812499999999 -0.11546875 -2.35359375 -0.71078125 -3.370625s-1.504375 -1.81353125 -2.59078125 -2.27003125" stroke-width="2.5"></path><path stroke="#000000" stroke-linecap="round" stroke-linejoin="round" d="m35.9375 28.323437499999997 -8.582812500000001 -2.2484375" stroke-width="2.5"></path></svg>