<svg xmlns="http://www.w3.org/2000/svg" fill="none" viewBox="-1.25 -1.25 40 40" id="Layout-Dashboard-1--Streamline-Ultimate" height="40" width="40"><desc>Layout Dashboard 1 Streamline Icon: https://streamlinehq.com</desc><path stroke="#000000" stroke-linecap="round" stroke-linejoin="round" d="M8.59375 7.421875h6.640625s1.171875 0 1.171875 1.171875v8.984375s0 1.171875 -1.171875 1.171875H8.59375s-1.171875 0 -1.171875 -1.171875V8.59375s0 -1.171875 1.171875 -1.171875Z" stroke-width="2.5"></path><path stroke="#000000" stroke-linecap="round" stroke-linejoin="round" d="M8.59375 23.4375h6.640625s1.171875 0 1.171875 1.171875v4.296875s0 1.171875 -1.171875 1.171875H8.59375s-1.171875 0 -1.171875 -1.171875v-4.296875s0 -1.171875 1.171875 -1.171875Z" stroke-width="2.5"></path><path stroke="#000000" stroke-linecap="round" stroke-linejoin="round" d="M22.265625 18.75h6.640625s1.171875 0 1.171875 1.171875v8.984375s0 1.171875 -1.171875 1.171875h-6.640625s-1.171875 0 -1.171875 -1.171875v-8.984375s0 -1.171875 1.171875 -1.171875Z" stroke-width="2.5"></path><path stroke="#000000" stroke-linecap="round" stroke-linejoin="round" d="M22.265625 7.421875h6.640625s1.171875 0 1.171875 1.171875v4.296875s0 1.171875 -1.171875 1.171875h-6.640625s-1.171875 0 -1.171875 -1.171875V8.59375s0 -1.171875 1.171875 -1.171875Z" stroke-width="2.5"></path><path stroke="#000000" stroke-linecap="round" stroke-linejoin="round" d="M3.515625 1.171875h30.46875s2.34375 0 2.34375 2.34375v30.46875s0 2.34375 -2.34375 2.34375H3.515625s-2.34375 0 -2.34375 -2.34375V3.515625s0 -2.34375 2.34375 -2.34375Z" stroke-width="2.5"></path></svg>