<svg xmlns="http://www.w3.org/2000/svg" fill="none" viewBox="-1.25 -1.25 40 40" id="Color-Bucket-Brush--Streamline-Ultimate" height="40" width="40"><desc>Color Bucket Brush Streamline Icon: https://streamlinehq.com</desc><path stroke="#000000" stroke-linecap="round" stroke-linejoin="round" d="M1.171875 12.890625h16.40625" stroke-width="2.5"></path><path stroke="#000000" stroke-linecap="round" stroke-linejoin="round" d="M12.109375 1.171875V6.25" stroke-width="2.5"></path><path stroke="#000000" stroke-linecap="round" stroke-linejoin="round" d="M6.640625 1.171875V6.25" stroke-width="2.5"></path><path stroke="#000000" stroke-linecap="round" stroke-linejoin="round" d="M16.40625 1.171875h-14.0625c-0.309546875 0.004046875 -0.605265625 0.1288109375 -0.824165625 0.347709375C1.3006859375000002 1.738484375 1.175921875 2.034203125 1.171875 2.34375V14.0625c0.0023890625 1.545078125 0.44443750000000004 3.0575 1.2744843750000001 4.3607812500000005 0.830046875 1.3031249999999999 2.013828125 2.343125 3.4130156250000003 2.99859375V28.125c0 0.93234375 0.37039062500000003 1.8265625 1.029703125 2.4859375 0.6593125 0.65921875 1.553515625 1.0296875 2.485921875 1.0296875 0.9324062500000001 0 1.826609375 -0.37046875 2.485921875 -1.0296875 0.6593125 -0.6593749999999999 1.029703125 -1.5535937499999999 1.029703125 -2.4859375v-6.703125c1.3991875 -0.6554687499999999 2.58296875 -1.6954687499999999 3.4129687499999997 -2.99859375 0.83015625 -1.30328125 1.2721875 -2.8157031249999998 1.27453125 -4.3607812500000005V2.34375c-0.0040625 -0.309546875 -0.12875 -0.605265625 -0.34765625 -0.824165625C17.0115625 1.3006859375000002 16.71578125 1.175921875 16.40625 1.171875Z" stroke-width="2.5"></path><path stroke="#000000" stroke-linecap="round" stroke-linejoin="round" d="M21.09375 13.249968749999999c1.55015625 -0.247 3.1178125000000003 -0.3671875 4.6875 -0.359359375 5.828125 0 10.546875 1.5624843750000001 10.546875 3.515640625 0 1.953125 -4.6875 3.515625 -10.546875 3.515625 -1.5696875 0.0078125 -3.13734375 -0.11234375 -4.6875 -0.359375" stroke-width="2.5"></path><path stroke="#000000" stroke-linecap="round" stroke-linejoin="round" d="M16.40625 34.375c2.91265625 1.420625 6.13890625 2.07671875 9.375 1.90625 5.828125 0 10.546875 -1.5625 10.546875 -3.515625V16.40625" stroke-width="2.5"></path></svg>