<svg xmlns="http://www.w3.org/2000/svg" fill="none" viewBox="-1.25 -1.25 40 40" id="Tool-Box--Streamline-Ultimate" height="40" width="40"><desc>Tool Box Streamline Icon: https://streamlinehq.com</desc><path stroke="#000000" stroke-linecap="round" stroke-linejoin="round" d="M3.515625 10.546875h30.46875s2.34375 0 2.34375 2.34375v18.75s0 2.34375 -2.34375 2.34375H3.515625s-2.34375 0 -2.34375 -2.34375v-18.75s0 -2.34375 2.34375 -2.34375Z" stroke-width="2.5"></path><path stroke="#000000" stroke-linecap="round" stroke-linejoin="round" d="M25.78125 10.546875c0 -1.8647968750000001 -0.7407812500000001 -3.6532343750000003 -2.059375 -4.97184375C22.403281250000003 4.256421875 20.61484375 3.515625 18.75 3.515625s-3.6532343750000003 0.7407968749999999 -4.97184375 2.05940625C12.459546875 6.893640625 11.71875 8.682078125 11.71875 10.546875" stroke-width="2.5"></path><path stroke="#000000" stroke-linecap="round" stroke-linejoin="round" d="M1.171875 19.921875h14.0625" stroke-width="2.5"></path><path stroke="#000000" stroke-linecap="round" stroke-linejoin="round" d="M22.265625 19.921875h14.0625" stroke-width="2.5"></path><path stroke="#000000" stroke-linecap="round" stroke-linejoin="round" d="M15.234375 21.484375c0 0.9325 0.37039062500000003 1.82671875 1.0296875 2.4859375 0.6593749999999999 0.6593749999999999 1.5535937499999999 1.0296875 2.4859375 1.0296875s1.8265625 -0.3703125 2.4859375 -1.0296875c0.65921875 -0.65921875 1.0296875 -1.5534375 1.0296875 -2.4859375v-1.875c0 -0.93234375 -0.37046875 -1.8265625 -1.0296875 -2.48578125 -0.6593749999999999 -0.6593749999999999 -1.5535937499999999 -1.02984375 -2.4859375 -1.02984375s-1.8265625 0.37046875 -2.4859375 1.02984375c-0.659296875 0.65921875 -1.0296875 1.5534375 -1.0296875 2.48578125v1.875Z" stroke-width="2.5"></path></svg>