<svg xmlns="http://www.w3.org/2000/svg" fill="none" viewBox="-1.25 -1.25 40 40" id="Cog--Streamline-Ultimate" height="40" width="40"><desc>Cog Streamline Icon: https://streamlinehq.com</desc><path stroke="#000000" stroke-linecap="round" stroke-linejoin="round" d="M16.478125 3.8094375c0.28671875 0.318265625 0.63703125 0.57275 1.0284375000000001 0.746953125 0.39140625 0.1741875 0.815 0.264203125 1.2434375 0.264203125 0.42828125 0 0.85203125 -0.090015625 1.24328125 -0.264203125 0.39140625 -0.17420312500000001 0.741875 -0.4286875 1.02859375 -0.746953125l1.478125 -1.621875c0.42359375 -0.46884375 0.9818749999999999 -0.7950984375 1.5984375 -0.9339765624999999 0.61640625 -0.1388765625 1.2606249999999999 -0.0835765625 1.8443749999999999 0.1583125 0.58375 0.2418828125 1.0784375000000002 0.6585078125 1.4159375 1.1926796874999999 0.3375 0.534171875 0.50140625 1.15971875 0.469375 1.7907968749999998l-0.1109375 2.187484375c-0.0215625 0.42673437500000005 0.046718749999999996 0.8532343750000001 0.2 1.2520156249999999 0.1534375 0.39878125 0.38875 0.761015625 0.690625 1.0633593749999999s0.6637500000000001 0.53809375 1.06234375 0.692078125c0.39859374999999997 0.15396875000000002 0.8250000000000001 0.222765625 1.25171875 0.2019375l2.1875 -0.1109375c0.630625 -0.031093750000000003 1.25546875 0.133609375 1.7889062500000001 0.47153125 0.53328125 0.3379375 0.9492187500000001 0.832546875 1.19046875 1.4160625 0.24125000000000002 0.583515625 0.29609375 1.227359375 0.15718749999999998 1.8433125000000001 -0.13890625 0.6159375 -0.46499999999999997 1.173828125 -0.9334375 1.59721875l-1.628125 1.4686875c-0.31796874999999997 0.2871875 -0.57203125 0.6378125 -0.7459375 1.0292187499999998 -0.17390624999999998 0.3915625 -0.26375 0.81515625 -0.26375 1.2434375 0 0.4284375 0.08984375 0.85203125 0.26375 1.2434375 0.17390624999999998 0.3915625 0.42796874999999995 0.7421875 0.7459375 1.0292187499999998l1.628125 1.46875c0.46875 0.42375 0.795 0.9820312499999999 0.93390625 1.5984375 0.13890625 0.61640625 0.08359375 1.26078125 -0.15828125 1.8445312500000002 -0.24187499999999998 0.58375 -0.6584375 1.07828125 -1.19265625 1.41578125 -0.53421875 0.33765625 -1.1596875 0.5015625 -1.7907812499999998 0.469375l-2.1875 -0.1109375c-0.42765625 -0.021875000000000002 -0.8553125 0.046093749999999996 -1.2550000000000001 0.1996875 -0.39968750000000003 0.15375 -0.7626562499999999 0.38953125 -1.06546875 0.69234375 -0.3028125 0.3028125 -0.53875 0.6659375000000001 -0.69234375 1.065625 -0.15375 0.39968750000000003 -0.22171875 0.8271875 -0.1996875 1.25484375l0.1109375 2.1875c0.02796875 0.62796875 -0.138125 1.24921875 -0.47546875 1.77953125 -0.33734375 0.5303125 -0.82984375 0.94375 -1.41046875 1.184375 -0.580625 0.24078124999999997 -1.22125 0.29671875000000003 -1.8348437499999999 0.16062500000000002 -0.6135937499999999 -0.13609374999999999 -1.17046875 -0.45781249999999996 -1.59484375 -0.92140625l-1.4703125 -1.6265625c-0.28703125 -0.3178125 -0.6375 -0.571875 -1.02890625 -0.74578125 -0.39125000000000004 -0.17390624999999998 -0.8146875 -0.26375 -1.24296875 -0.26375s-0.8517187500000001 0.08984375 -1.243125 0.26375c-0.39125000000000004 0.17390624999999998 -0.74171875 0.42796874999999995 -1.02875 0.74578125L15.009343750000001 35.3125c-0.423734375 0.46578125 -0.980796875 0.7895312499999999 -1.595234375 0.9271875 -0.6144531249999999 0.13749999999999998 -1.2563906249999999 0.08234375 -1.838296875 -0.15828125 -0.58190625 -0.24046875 -1.075453125 -0.6546875 -1.413390625 -1.1859375 -0.3379375 -0.53125 -0.50378125 -1.1539062500000001 -0.47495312500000003 -1.78296875l0.11249999999999999 -2.1875c0.022000000000000002 -0.42765625 -0.04603125 -0.8551562500000001 -0.1996875 -1.25484375 -0.153671875 -0.39968750000000003 -0.38953125 -0.7628125 -0.69234375 -1.065625 -0.3028125 -0.3028125 -0.665828125 -0.53859375 -1.065546875 -0.69234375 -0.39971875 -0.15359375 -0.82725 -0.22156250000000002 -1.254921875 -0.1996875l-2.1875 0.1109375c-0.6308125 0.03296875 -1.25634375 -0.13015625 -1.7907187500000001 -0.46703125 -0.534390625 -0.33671875 -0.951421875 -0.830625 -1.193840625 -1.4139062500000001 -0.24242500000000003 -0.5834375 -0.29835937500000004 -1.22734375 -0.160121875 -1.84375 0.1382359375 -0.61640625 0.46386874999999994 -1.17484375 0.9321812500000001 -1.5987500000000001l1.6265625 -1.46875c0.317890625 -0.28703125 0.5720000000000001 -0.63765625 0.745921875 -1.0292187499999998 0.173921875 -0.39140625 0.263796875 -0.815 0.263796875 -1.2434375 0 -0.42828125 -0.089875 -0.851875 -0.263796875 -1.2434375 -0.173921875 -0.39140625 -0.42803125000000003 -0.74203125 -0.745921875 -1.0292187499999998l-1.6265625 -1.4765000000000001c-0.466796875 -0.4234375 -0.7914328125 -0.980703125 -0.9295296875 -1.595625 -0.138096875 -0.6149218750000001 -0.082915625 -1.257484375 0.1580015625 -1.839859375 0.24091875 -0.582375 0.6558093749999999 -1.076125 1.1879656250000001 -1.41378125 0.53215625 -0.337640625 1.155609375 -0.502703125 1.7851249999999999 -0.472609375l2.1875 0.1109375c0.428484375 0.022515624999999997 0.85690625 -0.045328125000000004 1.2574687500000001 -0.199171875 0.400546875 -0.15382812499999998 0.7642656250000001 -0.3901875 1.067515625 -0.693734375 0.30325 -0.303546875 0.539265625 -0.6675 0.692703125 -1.0681875 0.1534375 -0.400703125 0.22087500000000002 -0.829203125 0.1979375 -1.25765625l-0.1046875 -2.189078125c-0.029515625 -0.6292656249999999 0.135828125 -1.252328125 0.4735 -1.784140625 0.337671875 -0.531828125 0.83121875 -0.9465156250000001 1.41328125 -1.1874718750000002 0.5820625 -0.24095937499999998 1.2242968749999998 -0.29645781250000003 1.8390625 -0.158921875 0.614765625 0.13753437500000001 1.172125 0.461409375 1.59603125 0.9274249999999999l1.46878125 1.621875Z" stroke-width="2.5"></path><path stroke="#000000" stroke-linecap="round" stroke-linejoin="round" d="M11.71875 18.7515625c0 1.86484375 0.7407968749999999 3.653125 2.05940625 4.971875 1.318609375 1.31859375 3.107 2.059375 4.97184375 2.059375 1.86484375 0 3.6532812499999996 -0.7407812500000001 4.971875 -2.059375 1.31859375 -1.3187499999999999 2.059375 -3.10703125 2.059375 -4.971875s-0.7407812500000001 -3.6532656249999995 -2.059375 -4.971875c-1.31859375 -1.318625 -3.10703125 -2.05940625 -4.971875 -2.05940625s-3.6532343750000003 0.7407812500000001 -4.97184375 2.05940625C12.459546875 15.098296875 11.71875 16.88671875 11.71875 18.7515625Z" stroke-width="2.5"></path></svg>