<svg xmlns="http://www.w3.org/2000/svg" fill="none" viewBox="-1.25 -1.25 40 40" id="Database-1--Streamline-Ultimate" height="40" width="40"><desc>Database 1 Streamline Icon: https://streamlinehq.com</desc><path stroke="#000000" stroke-linecap="round" stroke-linejoin="round" d="M18.75 24.6109375v11.71875" stroke-width="2.5"></path><path stroke="#000000" stroke-linecap="round" stroke-linejoin="round" d="M7.03125 36.3296875h23.4375" stroke-width="2.5"></path><path stroke="#000000" d="M1.7578125 36.328125c-0.32360468750000004 0 -0.5859375 -0.26234375 -0.5859375 -0.5859375s0.26233281249999996 -0.5859375 0.5859375 -0.5859375" stroke-width="2.5"></path><path stroke="#000000" d="M1.7578125 36.328125c0.323609375 0 0.5859375 -0.26234375 0.5859375 -0.5859375s-0.262328125 -0.5859375 -0.5859375 -0.5859375" stroke-width="2.5"></path><path stroke="#000000" d="M35.7421875 36.328125c-0.32359375 0 -0.5859375 -0.26234375 -0.5859375 -0.5859375s0.26234375 -0.5859375 0.5859375 -0.5859375" stroke-width="2.5"></path><path stroke="#000000" d="M35.7421875 36.328125c0.32359375 0 0.5859375 -0.26234375 0.5859375 -0.5859375s-0.26234375 -0.5859375 -0.5859375 -0.5859375" stroke-width="2.5"></path><path stroke="#000000" stroke-linecap="round" stroke-linejoin="round" d="M18.75 10.548406250000001c5.82484375 0 10.546875 -2.098671875 10.546875 -4.6875 0 -2.58884375 -4.72203125 -4.6875046875 -10.546875 -4.6875046875 -5.8248750000000005 0 -10.546875 2.0986609375 -10.546875 4.6875046875 0 2.588828125 4.7219999999999995 4.6875 10.546875 4.6875Z" stroke-width="2.5"></path><path stroke="#000000" stroke-linecap="round" stroke-linejoin="round" d="M8.203125 5.86090625v7.03125c0 2.5890625 4.721875 4.68753125 10.546875 4.68753125s10.546875 -2.0984687500000003 10.546875 -4.68753125v-7.03125" stroke-width="2.5"></path><path stroke="#000000" stroke-linecap="round" stroke-linejoin="round" d="M8.203125 12.892156250000001V19.9234375c0 2.5890625 4.721875 4.6875 10.546875 4.6875s10.546875 -2.0984375 10.546875 -4.6875V12.892156250000001" stroke-width="2.5"></path></svg>