<?xml version="1.0" encoding="UTF-8"?>
<svg width="326px" height="51px" viewBox="0 0 326 51" version="1.1" xmlns="http://www.w3.org/2000/svg" xmlns:xlink="http://www.w3.org/1999/xlink">
    <!-- Generator: Sketch 39 (31667) - http://www.bohemiancoding.com/sketch -->
    <title>Group 2</title>
    <desc>Created with Sketch.</desc>
    <defs></defs>
    <g id="Page-1" stroke="none" stroke-width="1" fill="none" fill-rule="evenodd">
        <g id="Desktop" transform="translate(-344.000000, -454.000000)">
            <g id="Group-2" transform="translate(344.000000, 454.000000)">
                <path d="M20.494,1.4 L20.494,17.36 C20.494,23.022 17.568,26.48 11.83,26.48 C8.068,26.48 4.876,24.466 3.774,21.084 L1.57,21.654 C2.9,25.72 6.814,28.57 11.83,28.57 C18.898,28.57 22.736,24.238 22.736,17.208 L22.736,1.4 L20.494,1.4 Z M37.2942212,14.7 C37.2942212,22.718 43.4502212,28.532 51.0882212,28.532 C58.7262212,28.532 64.9202212,22.718 64.9202212,14.7 C64.9202212,6.682 58.7262212,0.868 51.0882212,0.868 C43.4502212,0.868 37.2942212,6.682 37.2942212,14.7 L37.2942212,14.7 Z M39.5362212,14.7 C39.5362212,7.708 44.5902212,2.996 51.0882212,2.996 C57.5482212,2.996 62.6782212,7.708 62.6782212,14.7 C62.6782212,21.616 57.5482212,26.404 51.0882212,26.404 C44.5902212,26.404 39.5362212,21.616 39.5362212,14.7 L39.5362212,14.7 Z M98.0984424,28 L91.4864424,17.208 C95.1344424,16.144 97.2624424,13.484 97.2624424,9.608 C97.2624424,4.554 93.5764424,1.4 87.4964424,1.4 L79.9344424,1.4 L79.9344424,28 L82.1004424,28 L82.1004424,17.74 L87.4964424,17.74 C88.1044424,17.74 88.7124424,17.702 89.2824424,17.626 L95.6284424,28 L98.0984424,28 Z M82.1004424,15.802 L82.1004424,3.49 L87.6104424,3.49 C92.1704424,3.49 95.0204424,5.694 95.0204424,9.608 C95.0204424,13.256 92.4364424,15.802 87.6104424,15.802 L82.1004424,15.802 Z M135.000664,23.554 C135.000664,23.592 134.962664,24.542 134.962664,28.076 L136.938664,28.076 L136.938664,14.586 L126.564664,14.586 L126.564664,16.486 L134.962664,16.486 L134.962664,20.704 C133.898664,23.06 130.022664,26.404 124.550664,26.404 C118.052664,26.404 112.960664,21.616 112.960664,14.7 C112.960664,7.708 117.976664,2.996 124.512664,2.996 C128.692664,2.996 132.416664,5.048 134.392664,8.392 L136.596664,7.822 C134.278664,3.718 130.098664,1.02 124.512664,0.868 C116.874664,0.868 110.718664,6.682 110.718664,14.7 C110.718664,22.718 116.874664,28.532 124.512664,28.532 C130.364664,28.532 133.784664,25.074 134.962664,23.554 L135.000664,23.554 Z M155.030885,25.91 L155.030885,14.776 L167.228885,14.776 L167.228885,12.762 L155.030885,12.762 L155.030885,3.49 L170.154885,3.49 L170.154885,1.4 L152.864885,1.4 L152.864885,28 L170.382885,28 L170.382885,25.91 L155.030885,25.91 Z" id="jorge" fill="#FFFFFF"></path>
                <path d="M191.39,25.91 L191.39,14.776 L203.588,14.776 L203.588,12.762 L191.39,12.762 L191.39,3.49 L206.514,3.49 L206.514,1.4 L189.224,1.4 L189.224,28 L206.742,28 L206.742,25.91 L191.39,25.91 Z M224.834221,25.91 L224.834221,1.4 L222.668221,1.4 L222.668221,28 L239.578221,28 L239.578221,25.91 L224.834221,25.91 Z M270.476442,1.4 L261.622442,21.654 C260.976442,23.25 260.140442,25.492 260.102442,25.492 L260.064442,25.492 C260.026442,25.492 259.228442,23.25 258.544442,21.654 L249.690442,1.4 L247.334442,1.4 L259.038442,28 L261.166442,28 L272.832442,1.4 L270.476442,1.4 Z M288.834664,28 L288.834664,1.4 L286.668664,1.4 L286.668664,28 L288.834664,28 Z M324.368885,28 L317.756885,17.208 C321.404885,16.144 323.532885,13.484 323.532885,9.608 C323.532885,4.554 319.846885,1.4 313.766885,1.4 L306.204885,1.4 L306.204885,28 L308.370885,28 L308.370885,17.74 L313.766885,17.74 C314.374885,17.74 314.982885,17.702 315.552885,17.626 L321.898885,28 L324.368885,28 Z M308.370885,15.802 L308.370885,3.49 L313.880885,3.49 C318.440885,3.49 321.290885,5.694 321.290885,9.608 C321.290885,13.256 318.706885,15.802 313.880885,15.802 L308.370885,15.802 Z" id="elvir" fill="#FDF400"></path>
                <path d="M6.384,41.6 L6.384,46.328 C6.384,47.888 5.712,48.608 4.44,48.608 C3.156,48.608 2.484,47.888 2.484,46.328 L2.484,41.6 L0.816,41.6 L0.816,46.352 C0.816,48.824 2.22,50.168 4.44,50.168 C6.648,50.168 8.064,48.824 8.064,46.352 L8.064,41.6 L6.384,41.6 Z M13.5093334,50 L13.5093334,41.6 L11.8413334,41.6 L11.8413334,50 L13.5093334,50 Z M22.7680003,41.6 L22.7680003,50 L26.4160003,50 C28.8040003,50 30.7360003,48.344 30.7360003,45.836 C30.7360003,43.316 28.7920003,41.6 26.3920003,41.6 L22.7680003,41.6 Z M24.4360003,48.44 L24.4360003,43.16 L26.3920003,43.16 C27.8080003,43.16 29.0080003,44.204 29.0080003,45.836 C29.0080003,47.468 27.8080003,48.44 26.4160003,48.44 L24.4360003,48.44 Z M35.8933338,48.44 L35.8933338,46.412 L39.2653338,46.412 L39.2653338,44.948 L35.8933338,44.948 L35.8933338,43.16 L40.1653338,43.16 L40.1653338,41.6 L34.2253338,41.6 L34.2253338,50 L40.2373338,50 L40.2373338,48.44 L35.8933338,48.44 Z M49.6906672,43.712 C49.3306672,42.392 48.0826672,41.432 46.5106672,41.432 C44.7346672,41.432 43.4386672,42.548 43.4386672,43.856 C43.4386672,45.32 44.6866672,45.836 45.6826672,46.196 C46.8706672,46.616 48.0106672,46.82 48.0106672,47.672 C48.0106672,48.236 47.5426672,48.68 46.6426672,48.68 C45.5986672,48.68 44.9266672,47.972 44.7466672,47.216 L43.1386672,47.648 C43.5946672,49.172 44.8066672,50.168 46.5706672,50.168 C48.4906672,50.168 49.7866672,49.1 49.7866672,47.6 C49.7866672,46.1 48.3826672,45.452 47.1586672,45.032 C46.1026672,44.672 45.1546672,44.432 45.1546672,43.76 C45.1546672,43.256 45.6466672,42.884 46.4146672,42.884 C47.1586672,42.884 47.8906672,43.316 48.0826672,44.156 L49.6906672,43.712 Z M54.9320007,50 L54.9320007,41.6 L53.2640007,41.6 L53.2640007,50 L54.9320007,50 Z M65.3453341,49.124 C65.3453341,49.136 65.3333341,49.304 65.3333341,50 L66.7733341,50 L66.7733341,45.38 L63.0173341,45.38 L63.0173341,46.736 L65.3453341,46.736 L65.3453341,47.096 C65.0813341,47.744 64.3253341,48.536 62.8853341,48.536 C61.3253341,48.536 60.1733341,47.468 60.1733341,45.8 C60.1733341,44.204 61.2173341,43.076 62.7893341,43.076 C63.6173341,43.076 64.4453341,43.472 64.9013341,44.096 L66.6053341,43.652 C65.8493341,42.308 64.4573341,41.444 62.7893341,41.432 C60.3773341,41.432 58.4333341,43.268 58.4333341,45.8 C58.4333341,48.332 60.3773341,50.168 62.7893341,50.168 C63.8813341,50.168 64.8773341,49.64 65.3333341,49.124 L65.3453341,49.124 Z M76.2746676,41.6 L76.2746676,44.348 C76.2746676,45.764 76.2986676,47.132 76.2866676,47.132 L76.2746676,47.132 C76.2626676,47.132 75.2066676,45.632 74.6306676,44.876 L72.1946676,41.6 L70.6226676,41.6 L70.6226676,50 L72.2906676,50 L72.2906676,47.288 C72.2906676,45.62 72.2666676,44.408 72.2786676,44.408 L72.2906676,44.408 C72.3026676,44.408 73.2266676,45.728 73.9826676,46.76 L76.3706676,50 L77.9426676,50 L77.9426676,41.6 L76.2746676,41.6 Z M83.736001,48.44 L83.736001,46.412 L87.108001,46.412 L87.108001,44.948 L83.736001,44.948 L83.736001,43.16 L88.008001,43.16 L88.008001,41.6 L82.068001,41.6 L82.068001,50 L88.080001,50 L88.080001,48.44 L83.736001,48.44 Z M98.6013344,50 L96.6813344,46.82 C97.7013344,46.4 98.2653344,45.56 98.2653344,44.408 C98.2653344,42.716 97.0293344,41.6 94.9653344,41.6 L92.0253344,41.6 L92.0253344,50 L93.6933344,50 L93.6933344,47.132 L94.9653344,47.132 L95.0613344,47.132 L96.7293344,50 L98.6013344,50 Z M93.6933344,43.16 L95.1813344,43.16 C96.0933344,43.16 96.5373344,43.748 96.5373344,44.408 C96.5373344,45.044 96.1053344,45.644 95.1813344,45.644 L93.6933344,45.644 L93.6933344,43.16 Z M113.152001,48.536 L111.208001,48.536 L107.668001,45.596 L111.208001,42.668 L113.152001,42.668 L109.756001,45.596 L113.152001,48.536 Z M116.869335,50 L118.609335,50 L122.761335,41.6 L121.165335,41.6 L116.869335,50 Z M126.478668,48.536 L128.422668,48.536 L131.962668,45.596 L128.422668,42.668 L126.478668,42.668 L129.874668,45.596 L126.478668,48.536 Z M147.425335,43.16 L147.425335,41.6 L141.605335,41.6 L141.605335,50 L143.273335,50 L143.273335,46.712 L146.525335,46.712 L146.525335,45.212 L143.273335,45.212 L143.273335,43.16 L147.425335,43.16 Z M157.550669,50 L155.630669,46.82 C156.650669,46.4 157.214669,45.56 157.214669,44.408 C157.214669,42.716 155.978669,41.6 153.914669,41.6 L150.974669,41.6 L150.974669,50 L152.642669,50 L152.642669,47.132 L153.914669,47.132 L154.010669,47.132 L155.678669,50 L157.550669,50 Z M152.642669,43.16 L154.130669,43.16 C155.042669,43.16 155.486669,43.748 155.486669,44.408 C155.486669,45.044 155.054669,45.644 154.130669,45.644 L152.642669,45.644 L152.642669,43.16 Z M160.224002,45.8 C160.224002,48.332 162.168002,50.168 164.580002,50.168 C166.992002,50.168 168.948002,48.332 168.948002,45.8 C168.948002,43.268 166.992002,41.432 164.580002,41.432 C162.168002,41.432 160.224002,43.268 160.224002,45.8 L160.224002,45.8 Z M161.964002,45.8 C161.964002,44.18 163.044002,43.076 164.580002,43.076 C166.128002,43.076 167.208002,44.18 167.208002,45.8 C167.208002,47.408 166.128002,48.524 164.580002,48.524 C163.044002,48.524 161.964002,47.408 161.964002,45.8 L161.964002,45.8 Z M178.089335,41.6 L178.089335,44.348 C178.089335,45.764 178.113335,47.132 178.101335,47.132 L178.089335,47.132 C178.077335,47.132 177.021335,45.632 176.445335,44.876 L174.009335,41.6 L172.437335,41.6 L172.437335,50 L174.105335,50 L174.105335,47.288 C174.105335,45.62 174.081335,44.408 174.093335,44.408 L174.105335,44.408 C174.117335,44.408 175.041335,45.728 175.797335,46.76 L178.185335,50 L179.757335,50 L179.757335,41.6 L178.089335,41.6 Z M183.054669,41.6 L183.054669,43.16 L185.670669,43.16 L185.670669,50 L187.338669,50 L187.338669,43.16 L189.978669,43.16 L189.978669,41.6 L183.054669,41.6 Z M200.077336,48.44 L200.077336,46.412 L203.449336,46.412 L203.449336,44.948 L200.077336,44.948 L200.077336,43.16 L204.349336,43.16 L204.349336,41.6 L198.409336,41.6 L198.409336,50 L204.421336,50 L204.421336,48.44 L200.077336,48.44 Z M214.018669,41.6 L214.018669,44.348 C214.018669,45.764 214.042669,47.132 214.030669,47.132 L214.018669,47.132 C214.006669,47.132 212.950669,45.632 212.374669,44.876 L209.938669,41.6 L208.366669,41.6 L208.366669,50 L210.034669,50 L210.034669,47.288 C210.034669,45.62 210.010669,44.408 210.022669,44.408 L210.034669,44.408 C210.046669,44.408 210.970669,45.728 211.726669,46.76 L214.114669,50 L215.686669,50 L215.686669,41.6 L214.018669,41.6 Z M219.812003,41.6 L219.812003,50 L223.460003,50 C225.848003,50 227.780003,48.344 227.780003,45.836 C227.780003,43.316 225.836003,41.6 223.436003,41.6 L219.812003,41.6 Z M221.480003,48.44 L221.480003,43.16 L223.436003,43.16 C224.852003,43.16 226.052003,44.204 226.052003,45.836 C226.052003,47.468 224.852003,48.44 223.460003,48.44 L221.480003,48.44 Z M236.49867,41.6 L236.49867,50 L240.14667,50 C242.53467,50 244.46667,48.344 244.46667,45.836 C244.46667,43.316 242.52267,41.6 240.12267,41.6 L236.49867,41.6 Z M238.16667,48.44 L238.16667,43.16 L240.12267,43.16 C241.53867,43.16 242.73867,44.204 242.73867,45.836 C242.73867,47.468 241.53867,48.44 240.14667,48.44 L238.16667,48.44 Z M249.624003,48.44 L249.624003,46.412 L252.996003,46.412 L252.996003,44.948 L249.624003,44.948 L249.624003,43.16 L253.896003,43.16 L253.896003,41.6 L247.956003,41.6 L247.956003,50 L253.968003,50 L253.968003,48.44 L249.624003,48.44 Z M263.637336,41.6 L261.717336,46.688 C261.417336,47.516 261.249336,48.14 261.237336,48.14 L261.225336,48.14 C261.213336,48.14 261.033336,47.516 260.745336,46.688 L258.813336,41.6 L256.989336,41.6 L260.337336,50 L262.113336,50 L265.461336,41.6 L263.637336,41.6 Z M270.19867,48.44 L270.19867,46.412 L273.57067,46.412 L273.57067,44.948 L270.19867,44.948 L270.19867,43.16 L274.47067,43.16 L274.47067,41.6 L268.53067,41.6 L268.53067,50 L274.54267,50 L274.54267,48.44 L270.19867,48.44 Z M280.156003,48.44 L280.156003,41.6 L278.488003,41.6 L278.488003,50 L284.308003,50 L284.308003,48.44 L280.156003,48.44 Z M286.849337,45.8 C286.849337,48.332 288.793337,50.168 291.205337,50.168 C293.617337,50.168 295.573337,48.332 295.573337,45.8 C295.573337,43.268 293.617337,41.432 291.205337,41.432 C288.793337,41.432 286.849337,43.268 286.849337,45.8 L286.849337,45.8 Z M288.589337,45.8 C288.589337,44.18 289.669337,43.076 291.205337,43.076 C292.753337,43.076 293.833337,44.18 293.833337,45.8 C293.833337,47.408 292.753337,48.524 291.205337,48.524 C289.669337,48.524 288.589337,47.408 288.589337,45.8 L288.589337,45.8 Z M299.06267,41.6 L299.06267,50 L300.73067,50 L300.73067,47.228 L302.06267,47.228 C304.07867,47.228 305.30267,46.172 305.30267,44.408 C305.30267,42.656 304.07867,41.6 302.06267,41.6 L299.06267,41.6 Z M300.73067,45.668 L300.73067,43.16 L302.02667,43.16 C302.98667,43.16 303.57467,43.616 303.57467,44.408 C303.57467,45.188 303.01067,45.668 302.02667,45.668 L300.73067,45.668 Z M310.280004,48.44 L310.280004,46.412 L313.652004,46.412 L313.652004,44.948 L310.280004,44.948 L310.280004,43.16 L314.552004,43.16 L314.552004,41.6 L308.612004,41.6 L308.612004,50 L314.624004,50 L314.624004,48.44 L310.280004,48.44 Z M325.145337,50 L323.225337,46.82 C324.245337,46.4 324.809337,45.56 324.809337,44.408 C324.809337,42.716 323.573337,41.6 321.509337,41.6 L318.569337,41.6 L318.569337,50 L320.237337,50 L320.237337,47.132 L321.509337,47.132 L321.605337,47.132 L323.273337,50 L325.145337,50 Z M320.237337,43.16 L321.725337,43.16 C322.637337,43.16 323.081337,43.748 323.081337,44.408 C323.081337,45.044 322.649337,45.644 321.725337,45.644 L320.237337,45.644 L320.237337,43.16 Z" id="UI-designer-&lt;/&gt;-fron" fill="#FFFFFF"></path>
            </g>
        </g>
    </g>
</svg>