<svg id="Logo" xmlns="http://www.w3.org/2000/svg" width="263.487" height="40.052" viewBox="0 0 263.487 40.052">
  <path id="jorge" d="M16.944,1.3V14.266c0,4.6-2.377,7.409-7.039,7.409a6.585,6.585,0,0,1-6.545-4.384l-1.791.463a8.446,8.446,0,0,0,8.335,5.619c5.742,0,8.86-3.519,8.86-9.231V1.3Zm13.649,10.8a11.222,11.222,0,1,0,22.444,0,11.222,11.222,0,1,0-22.444,0Zm1.821,0A9.13,9.13,0,0,1,41.8,2.6a9.172,9.172,0,0,1,9.416,9.508A9.208,9.208,0,0,1,41.8,21.614a9.166,9.166,0,0,1-9.385-9.508ZM79.99,22.91l-5.372-8.767a6.059,6.059,0,0,0,4.692-6.174c0-4.106-2.995-6.668-7.934-6.668H65.234V22.91h1.76V14.575h4.384a11.092,11.092,0,0,0,1.451-.093l5.156,8.428Zm-13-9.91V3H71.47c3.7,0,6.02,1.791,6.02,4.97,0,2.964-2.1,5.032-6.02,5.032Zm42.976,6.3c0,.031-.031.8-.031,3.674h1.605V12.013h-8.428v1.544h6.823v3.427c-.864,1.914-4.013,4.631-8.459,4.631a9.191,9.191,0,0,1-9.416-9.508,9.44,9.44,0,0,1,17.411-5.125l1.791-.463A11.163,11.163,0,0,0,101.449.868,11.02,11.02,0,0,0,90.243,12.105a11.02,11.02,0,0,0,11.206,11.237,10.725,10.725,0,0,0,8.49-4.044Zm16.273,1.914V12.167h9.91V10.531h-9.91V3h12.287V1.3H124.483V22.91h14.232v-1.7Z" transform="translate(-0.957 -0.868)" fill="#fff" fill-rule="evenodd"/>
  <path id="elvir" d="M190.984,21.312V12.267h9.91V10.631h-9.91V3.1H203.27V1.4H189.224V23.01h14.232v-1.7Zm27.17,0V1.4h-1.76V23.01h13.738v-1.7ZM255.234,1.4l-7.193,16.454c-.525,1.3-1.2,3.118-1.235,3.118h-.031c-.031,0-.679-1.821-1.235-3.118L238.347,1.4h-1.914l9.508,21.61h1.729L257.148,1.4Zm14.914,21.61V1.4h-1.76V23.01Zm28.868,0-5.372-8.767a6.059,6.059,0,0,0,4.692-6.174c0-4.106-2.995-6.668-7.934-6.668H284.26V23.01h1.76V14.675H290.4a11.092,11.092,0,0,0,1.451-.093l5.156,8.428Zm-13-9.91V3.1H290.5c3.7,0,6.02,1.791,6.02,4.97,0,2.964-2.1,5.032-6.02,5.032Z" transform="translate(-36.16 -0.968)" fill="#fdf400" fill-rule="evenodd"/>
  <path id="UI-designer-_-fron" data-name="UI-designer-&lt;/&gt;-fron" d="M5.339,41.568V45.41c0,1.267-.546,1.852-1.579,1.852s-1.589-.585-1.589-1.852V41.568H.816v3.861a2.767,2.767,0,0,0,2.944,3.1,2.771,2.771,0,0,0,2.944-3.1V41.568Zm5.789,6.824V41.568H9.773v6.824Zm7.522-6.824v6.824h2.964a3.343,3.343,0,0,0,3.51-3.383,3.4,3.4,0,0,0-3.529-3.441Zm1.355,5.557V42.836h1.589a2.088,2.088,0,0,1,2.125,2.174,2.034,2.034,0,0,1-2.106,2.116Zm9.308,0V45.478h2.739V44.288H29.313V42.836h3.471V41.568H27.958v6.824h4.884V47.125Zm11.209-3.841a2.6,2.6,0,0,0-2.583-1.852,2.256,2.256,0,0,0-2.5,1.969c0,1.189,1.014,1.609,1.823,1.9.965.341,1.891.507,1.891,1.2,0,.458-.38.819-1.111.819a1.546,1.546,0,0,1-1.54-1.189l-1.306.351a2.755,2.755,0,0,0,2.788,2.047c1.56,0,2.613-.868,2.613-2.086s-1.141-1.745-2.135-2.086c-.858-.292-1.628-.487-1.628-1.033,0-.409.4-.712,1.024-.712a1.341,1.341,0,0,1,1.355,1.033Zm4.258,5.108V41.568H43.425v6.824Zm8.46-.712c0,.01-.01.146-.01.712H54.4V44.639H51.349v1.1H53.24v.292a2.032,2.032,0,0,1-2,1.17,2.108,2.108,0,0,1-2.2-2.223,2.066,2.066,0,0,1,2.125-2.213,2.168,2.168,0,0,1,1.716.829l1.384-.361a3.522,3.522,0,0,0-3.1-1.8,3.549,3.549,0,0,0,0,7.1,2.928,2.928,0,0,0,2.067-.848Zm8.879-6.113V43.8c0,1.15.02,2.262.01,2.262h-.01c-.01,0-.868-1.219-1.336-1.833L58.8,41.568H57.527v6.824h1.355v-2.2c0-1.355-.019-2.34-.01-2.34h.01c.01,0,.76,1.072,1.375,1.911l1.94,2.632h1.277V41.568Zm6.062,5.557V45.478H70.92V44.288H68.181V42.836h3.471V41.568H66.826v6.824H71.71V47.125Zm12.077,1.267L78.7,45.809a1.988,1.988,0,0,0,1.287-1.96c0-1.375-1-2.281-2.681-2.281H74.915v6.824H76.27v-2.33h1.111l1.355,2.33ZM76.27,42.836h1.209a1.013,1.013,0,1,1,0,2.018H76.27ZM92.078,47.2H90.5l-2.876-2.388L90.5,42.436h1.579l-2.759,2.379Zm3.02,1.189h1.414l3.373-6.824h-1.3Zm7.807-1.189h1.579l2.876-2.388-2.876-2.379h-1.579l2.759,2.379Zm17.017-4.367V41.568h-4.728v6.824h1.355V45.722h2.642V44.5h-2.642V42.836Zm8.226,5.557-1.56-2.583a1.988,1.988,0,0,0,1.287-1.96c0-1.375-1-2.281-2.681-2.281h-2.388v6.824h1.355v-2.33h1.111l1.355,2.33Zm-3.987-5.557h1.209a1.013,1.013,0,1,1,0,2.018h-1.209Zm6.159,2.145a3.544,3.544,0,1,0,3.539-3.549,3.48,3.48,0,0,0-3.539,3.549Zm1.414,0a2.132,2.132,0,1,1,2.125,2.213,2.071,2.071,0,0,1-2.125-2.213Zm13.1-3.412V43.8c0,1.15.02,2.262.01,2.262h-.01c-.01,0-.868-1.219-1.336-1.833l-1.979-2.661h-1.277v6.824H141.6v-2.2c0-1.355-.02-2.34-.01-2.34h.01c.01,0,.76,1.072,1.375,1.911l1.94,2.632h1.277V41.568Zm4.034,0v1.267h2.125v5.557h1.355V42.836h2.145V41.568ZM162.7,47.125V45.478h2.739V44.288H162.7V42.836h3.471V41.568h-4.826v6.824h4.884V47.125Zm11.326-5.557V43.8c0,1.15.02,2.262.01,2.262h-.01c-.01,0-.868-1.219-1.336-1.833l-1.979-2.661h-1.277v6.824h1.355v-2.2c0-1.355-.02-2.34-.01-2.34h.01c.01,0,.76,1.072,1.375,1.911l1.94,2.632h1.277V41.568Zm4.707,0v6.824h2.964a3.343,3.343,0,0,0,3.51-3.383,3.4,3.4,0,0,0-3.529-3.441Zm1.355,5.557V42.836h1.589A2.088,2.088,0,0,1,183.8,45.01a2.034,2.034,0,0,1-2.106,2.116Zm12.2-5.557v6.824h2.964a3.343,3.343,0,0,0,3.51-3.383,3.4,3.4,0,0,0-3.529-3.441Zm1.355,5.557V42.836h1.589a2.088,2.088,0,0,1,2.125,2.174,2.034,2.034,0,0,1-2.106,2.116Zm9.308,0V45.478h2.739V44.288h-2.739V42.836h3.471V41.568h-4.826v6.824h4.884V47.125Zm11.384-5.557-1.56,4.134c-.244.673-.38,1.18-.39,1.18h-.01c-.01,0-.156-.507-.39-1.18l-1.57-4.134h-1.482l2.72,6.824H213.1l2.72-6.824Zm5.33,5.557V45.478H222.4V44.288h-2.739V42.836h3.471V41.568h-4.826v6.824h4.884V47.125Zm8.089,0V41.568H226.4v6.824h4.728V47.125Zm5.438-2.145a3.544,3.544,0,1,0,3.539-3.549,3.48,3.48,0,0,0-3.539,3.549Zm1.414,0a2.132,2.132,0,1,1,2.125,2.213,2.071,2.071,0,0,1-2.125-2.213Zm8.509-3.412v6.824h1.355V46.141h1.082c1.638,0,2.632-.858,2.632-2.291s-.994-2.281-2.632-2.281Zm1.355,3.3V42.836h1.053c.78,0,1.258.37,1.258,1.014s-.458,1.024-1.258,1.024Zm7.758,2.252V45.478h2.739V44.288h-2.739V42.836H255.7V41.568h-4.826v6.824h4.884V47.125ZM264.3,48.393l-1.56-2.583a1.988,1.988,0,0,0,1.287-1.96c0-1.375-1-2.281-2.681-2.281h-2.388v6.824h1.355v-2.33h1.111l1.355,2.33Zm-3.987-5.557h1.209a1.013,1.013,0,1,1,0,2.018h-1.209Z" transform="translate(-0.816 -8.478)" fill="#fff" fill-rule="evenodd"/>
</svg>
