<svg width="433" height="45" viewBox="0 0 433 45" fill="none" xmlns="http://www.w3.org/2000/svg">
<path d="M0.287744 45V0.199997H18.5917L25.1837 22.472H25.9517L32.5437 0.199997H50.8477V45H38.0477V15.944H37.3437L30.1117 39.368H21.0237L13.7277 15.944H13.0877V45H0.287744ZM52.7747 45L67.7507 0.199997H84.1347L98.9187 45H84.9667L82.9827 37.96H68.8387L66.8547 45H52.7747ZM71.3987 27.912H80.3587L76.3267 14.408H75.4307L71.3987 27.912ZM100.915 45V0.199997H120.755C123.401 0.199997 125.747 0.541331 127.795 1.224C129.886 1.864 131.657 2.824 133.107 4.104C134.601 5.34133 135.731 6.856 136.499 8.648C137.267 10.3973 137.651 12.4027 137.651 14.664V15.304C137.651 17.9067 136.99 20.2747 135.667 22.408C134.387 24.5413 132.659 26.1627 130.483 27.272L140.403 45H125.427L118.323 30.28H114.163V45H100.915ZM113.651 21H118.451C120.585 21 122.163 20.5093 123.187 19.528C124.211 18.504 124.723 17.2667 124.723 15.816V15.304C124.723 13.9387 124.211 12.8507 123.187 12.04C122.163 11.2293 120.627 10.824 118.579 10.824H113.651V21ZM150.655 45V11.464H139.455V0.199997H175.103V11.464H163.967V45H150.655ZM179.293 45V0.199997H192.541V45H179.293ZM199.138 45V0.199997H213.794L227.746 25.48H228.066V0.199997H240.738V45H227.874L212.13 16.2H211.81V45H199.138ZM253.439 33.288C252.287 33.288 251.199 33.096 250.175 32.712C249.194 32.2853 248.341 31.7307 247.615 31.048C246.89 30.3653 246.314 29.576 245.887 28.68C245.461 27.7413 245.247 26.76 245.247 25.736V25.224C245.247 24.2 245.461 23.24 245.887 22.344C246.314 21.448 246.89 20.6587 247.615 19.976C248.341 19.2933 249.194 18.76 250.175 18.376C251.199 17.992 252.287 17.8 253.439 17.8C254.549 17.8 255.594 17.992 256.575 18.376C257.599 18.76 258.474 19.2933 259.199 19.976C259.967 20.6587 260.565 21.448 260.991 22.344C261.418 23.24 261.631 24.2 261.631 25.224V25.672C261.631 26.7387 261.418 27.7413 260.991 28.68C260.565 29.576 259.967 30.3653 259.199 31.048C258.474 31.7307 257.599 32.2853 256.575 32.712C255.594 33.096 254.549 33.288 253.439 33.288ZM266.14 45V0.199997H295.964V11.464H279.388V17.608H294.684V28.04H279.388V33.736H296.604V45H266.14ZM302.485 45V0.199997H315.733V33.736H331.349V45H302.485ZM339.188 45L325.62 0.199997H339.636L347.636 32.136H348.276L356.34 0.199997H370.292L356.724 45H339.188ZM373.55 45V0.199997H386.798V45H373.55ZM393.395 45V0.199997H413.235C415.881 0.199997 418.227 0.541331 420.275 1.224C422.366 1.864 424.137 2.824 425.587 4.104C427.081 5.34133 428.211 6.856 428.979 8.648C429.747 10.3973 430.131 12.4027 430.131 14.664V15.304C430.131 17.9067 429.47 20.2747 428.147 22.408C426.867 24.5413 425.139 26.1627 422.963 27.272L432.883 45H417.907L410.803 30.28H406.643V45H393.395ZM406.131 21H410.931C413.065 21 414.643 20.5093 415.667 19.528C416.691 18.504 417.203 17.2667 417.203 15.816V15.304C417.203 13.9387 416.691 12.8507 415.667 12.04C414.643 11.2293 413.107 10.824 411.059 10.824H406.131V21Z" fill="black"/>
</svg>
